:FULLY-SPECIFIED
:FORCE-ALL-JOINTS-BE-3DOF
:DEGREES
815
root 2.10376 16.513 22.8341 1.73453 6.63977 350.433
lfemur -35.4181 1.52936 1.24537
ltibia 21.8606 0 0
lfoot -9.6198 16.5096 0
ltoes 19.6061 0 0
rfemur 3.55751 2.25023 21.9891
rtibia 23.3421 0 0
rfoot -20.7623 -15.5347 0
rtoes -26.8962 0 0
lowerback 0.0203122 6.6834 4.938
upperback -0.457459 8.90551 -0.509667
thorax 0.360715 4.46099 -3.13809
lowerneck -5.41589 -2.16145 2.83005
upperneck 0.0953862 -3.07342 1.86969
head 0.950735 -1.49592 0.0348477
lclavicle 1.55149e-15 -3.39388e-16 0
lhumerus -53.9096 -6.67571 90.8565
lradius 54.5971 0 0
lwrist 17.2797 0 0
lhand -8.51248 3.98105 0
lfingers 7.12502 0 0
lthumb 17.4112 33.1496 0
rclavicle 1.55149e-15 -3.39388e-16 0
rhumerus -29.5166 45.4776 -108.388
rradius 68.8032 0 0
rwrist -1.46374 0 0
rhand -9.0396 -21.7625 0
rfingers 7.12502 0 0
rthumb 16.9029 -770.952 0
816
root 2.11747 16.5176 22.9562 2.1908 4.62022 350.743
lfemur -35.3797 1.19155 1.68718
ltibia 21.044 0 0
lfoot -9.26732 16.3916 0
ltoes 19.7044 0 0
rfemur 4.10404 2.96647 22.003
rtibia 22.5223 0 0
rfoot -20.8409 -15.0502 0
rtoes -26.9449 0 0
lowerback -0.0118352 6.74057 5.1049
upperback -0.444771 8.9821 -0.415264
thorax 0.406355 4.49919 -3.12669
lowerneck -5.4183 -2.03321 2.93036
upperneck 0.169297 -2.91131 1.77641
head 0.966856 -1.41571 -0.0074821
lclavicle 1.42543e-15 -3.49085e-16 0
lhumerus -53.8562 -6.53387 90.7433
lradius 54.1389 0 0
lwrist 17.4042 0 0
lhand -8.14763 4.23999 0
lfingers 7.12502 0 0
lthumb 17.7629 33.3871 0
rclavicle 1.42543e-15 -3.49085e-16 0
rhumerus -29.4838 45.4019 -108.27
rradius 68.4799 0 0
rwrist -1.67482 0 0
rhand -8.61482 -21.81 0
rfingers 7.12502 0 0
rthumb 17.3125 -770.977 0
817
root 2.13117 16.5222 23.0783 2.64706 2.60067 351.053
lfemur -35.3412 0.853736 2.12898
ltibia 20.2274 0 0
lfoot -8.91484 16.2737 0
ltoes 19.8028 0 0
rfemur 4.65056 3.68271 22.0169
rtibia 21.7025 0 0
rfoot -20.9196 -14.5658 0
rtoes -26.9935 0 0
lowerback -0.0439825 6.79774 5.2718
upperback -0.432082 9.0587 -0.320861
thorax 0.451996 4.53739 -3.11529
lowerneck -5.42071 -1.90496 3.03067
upperneck 0.243207 -2.74921 1.68313
head 0.982977 -1.33551 -0.0498119
lclavicle 1.29937e-15 -3.58782e-16 0
lhumerus -53.8027 -6.39203 90.6301
lradius 53.6808 0 0
lwrist 17.5287 0 0
lhand -7.78279 4.49894 0
lfingers 7.12502 0 0
lthumb 18.1146 33.6246 0
rclavicle 1.29937e-15 -3.58782e-16 0
rhumerus -29.451 45.3262 -108.153
rradius 68.1567 0 0
rwrist -1.88589 0 0
rhand -8.19004 -21.8575 0
rfingers 7.12502 0 0
rthumb 17.722 -771.003 0
818
root 2.14488 16.5268 23.2004 3.10332 0.581119 351.363
lfemur -35.3028 0.515926 2.57079
ltibia 19.4108 0 0
lfoot -8.56236 16.1557 0
ltoes 19.9012 0 0
rfemur 5.19709 4.39895 22.0308
rtibia 20.8826 0 0
rfoot -20.9983 -14.0813 0
rtoes -27.0422 0 0
lowerback -0.0761299 6.85491 5.4387
upperback -0.419394 9.1353 -0.226458
thorax 0.497637 4.57559 -3.10389
lowerneck -5.42312 -1.77672 3.13098
upperneck 0.317118 -2.5871 1.58986
head 0.999098 -1.2553 -0.0921417
lclavicle 1.17331e-15 -3.68479e-16 0
lhumerus -53.7492 -6.25019 90.5169
lradius 53.2226 0 0
lwrist 17.6532 0 0
lhand -7.41794 4.75788 0
lfingers 7.12502 0 0
lthumb 18.4663 33.8621 0
rclavicle 1.17331e-15 -3.68479e-16 0
rhumerus -29.4182 45.2505 -108.035
rradius 67.8335 0 0
rwrist -2.09697 0 0
rhand -7.76526 -21.9049 0
rfingers 7.12502 0 0
rthumb 18.1316 -771.028 0
819
root 2.15859 16.5314 23.3224 3.55958 -1.43843 351.673
lfemur -35.2644 0.178117 3.01259
ltibia 18.5943 0 0
lfoot -8.20988 16.0378 0
ltoes 19.9996 0 0
rfemur 5.74362 5.11518 22.0448
rtibia 20.0628 0 0
rfoot -21.077 -13.5969 0
rtoes -27.0909 0 0
lowerback -0.108277 6.91208 5.60561
upperback -0.406705 9.2119 -0.132055
thorax 0.543278 4.61378 -3.09249
lowerneck -5.42554 -1.64847 3.2313
upperneck 0.391028 -2.42499 1.49658
head 1.01522 -1.1751 -0.134471
lclavicle 1.04726e-15 -3.78175e-16 0
lhumerus -53.6957 -6.10834 90.4037
lradius 52.7644 0 0
lwrist 17.7777 0 0
lhand -7.05309 5.01683 0
lfingers 7.12502 0 0
lthumb 18.818 34.0997 0
rclavicle 1.04726e-15 -3.78175e-16 0
rhumerus -29.3854 45.1748 -107.917
rradius 67.5103 0 0
rwrist -2.30804 0 0
rhand -7.34048 -21.9524 0
rfingers 7.12502 0 0
rthumb 18.5412 -771.053 0
820
root 2.17229 16.536 23.4445 4.01584 -3.45798 351.983
lfemur -35.226 -0.159693 3.4544
ltibia 17.7777 0 0
lfoot -7.8574 15.9198 0
ltoes 20.098 0 0
rfemur 6.29015 5.83142 22.0587
rtibia 19.2429 0 0
rfoot -21.1556 -13.1124 0
rtoes -27.1396 0 0
lowerback -0.140425 6.96925 5.77251
upperback -0.394017 9.2885 -0.0376518
thorax 0.588918 4.65198 -3.08109
lowerneck -5.42795 -1.52023 3.33161
upperneck 0.464939 -2.26288 1.4033
head 1.03134 -1.09489 -0.176801
lclavicle 9.21198e-16 -3.87872e-16 0
lhumerus -53.6423 -5.9665 90.2905
lradius 52.3062 0 0
lwrist 17.9022 0 0
lhand -6.68825 5.27577 0
lfingers 7.12502 0 0
lthumb 19.1697 34.3372 0
rclavicle 9.21198e-16 -3.87872e-16 0
rhumerus -29.3526 45.0991 -107.8
rradius 67.187 0 0
rwrist -2.51912 0 0
rhand -6.9157 -21.9998 0
rfingers 7.12502 0 0
rthumb 18.9508 -771.079 0
821
root 2.186 16.5406 23.5666 4.4721 -5.47753 352.293
lfemur -35.1876 -0.497503 3.8962
ltibia 16.9611 0 0
lfoot -7.50492 15.8019 0
ltoes 20.1964 0 0
rfemur 6.83668 6.54766 22.0726
rtibia 18.4231 0 0
rfoot -21.2343 -12.628 0
rtoes -27.1883 0 0
lowerback -0.172572 7.02642 5.93941
upperback -0.381328 9.3651 0.0567512
thorax 0.634559 4.69018 -3.06969
lowerneck -5.43036 -1.39198 3.43192
upperneck 0.538849 -2.10077 1.31002
head 1.04746 -1.01469 -0.219131
lclavicle 7.95139e-16 -3.97569e-16 0
lhumerus -53.5888 -5.82466 90.1773
lradius 51.848 0 0
lwrist 18.0267 0 0
lhand -6.3234 5.53472 0
lfingers 7.12502 0 0
lthumb 19.5214 34.5747 0
rclavicle 7.95139e-16 -3.97569e-16 0
rhumerus -29.3198 45.0234 -107.682
rradius 66.8638 0 0
rwrist -2.73019 0 0
rhand -6.49092 -22.0473 0
rfingers 7.12502 0 0
rthumb 19.3604 -771.104 0
822
root 2.23007 16.5418 23.7043 3.99459 -4.90658 352.455
lfemur -34.6396 -0.34043 3.33089
ltibia 17.3828 0 0
lfoot -7.43449 14.7646 0
ltoes 20.2735 0 0
rfemur 5.22628 6.36638 21.6519
rtibia 19.4486 0 0
rfoot -20.5086 -12.3281 0
rtoes -26.5853 0 0
lowerback 0.145859 6.82084 5.68771
upperback -0.269692 9.07784 0.0299514
thorax 0.553969 4.54667 -2.95247
lowerneck -5.4543 -1.44 3.40629
upperneck 0.724174 -2.17241 1.35495
head 1.11497 -1.04539 -0.205049
lclavicle 1.27301e-15 -8.53319e-16 0
lhumerus -53.1729 -6.2056 89.9466
lradius 51.9338 0 0
lwrist 18.1434 0 0
lhand -5.99609 5.50567 0
lfingers 7.12502 0 0
lthumb 19.8347 34.4991 0
rclavicle 1.27301e-15 -8.53319e-16 0
rhumerus -29.8196 43.9365 -106.361
rradius 66.5006 0 0
rwrist -2.63816 0 0
rhand -6.65712 -22.2315 0
rfingers 7.12502 0 0
rthumb 19.2004 -771.301 0
823
root 2.27414 16.5429 23.8421 3.51708 -4.33563 352.617
lfemur -34.0916 -0.183356 2.76558
ltibia 17.8044 0 0
lfoot -7.36406 13.7273 0
ltoes 20.3506 0 0
rfemur 3.61588 6.18509 21.2312
rtibia 20.4741 0 0
rfoot -19.7829 -12.0282 0
rtoes -25.9824 0 0
lowerback 0.46429 6.61526 5.43601
upperback -0.158056 8.79057 0.00315163
thorax 0.473379 4.40316 -2.83526
lowerneck -5.47824 -1.48803 3.38065
upperneck 0.909499 -2.24405 1.39988
head 1.18248 -1.07608 -0.190966
lclavicle 1.75088e-15 -1.30907e-15 0
lhumerus -52.757 -6.58654 89.716
lradius 52.0195 0 0
lwrist 18.2601 0 0
lhand -5.66879 5.47662 0
lfingers 7.12502 0 0
lthumb 20.148 34.4235 0
rclavicle 1.75088e-15 -1.30907e-15 0
rhumerus -30.3194 42.8497 -105.041
rradius 66.1374 0 0
rwrist -2.54614 0 0
rhand -6.82332 -22.4157 0
rfingers 7.12502 0 0
rthumb 19.0403 -771.498 0
824
root 2.31822 16.5441 23.9798 3.03956 -3.76468 352.779
lfemur -33.5435 -0.0262825 2.20027
ltibia 18.2261 0 0
lfoot -7.29364 12.69 0
ltoes 20.4277 0 0
rfemur 2.00547 6.00381 20.8105
rtibia 21.4997 0 0
rfoot -19.0571 -11.7283 0
rtoes -25.3794 0 0
lowerback 0.782721 6.40967 5.18431
upperback -0.0464206 8.50331 -0.0236482
thorax 0.392788 4.25965 -2.71804
lowerneck -5.50218 -1.53605 3.35502
upperneck 1.09482 -2.31569 1.44482
head 1.25 -1.10678 -0.176884
lclavicle 2.22876e-15 -1.76482e-15 0
lhumerus -52.3411 -6.96749 89.4853
lradius 52.1053 0 0
lwrist 18.3768 0 0
lhand -5.34148 5.44758 0
lfingers 7.12502 0 0
lthumb 20.4613 34.3479 0
rclavicle 2.22876e-15 -1.76482e-15 0
rhumerus -30.8192 41.7628 -103.72
rradius 65.7741 0 0
rwrist -2.45411 0 0
rhand -6.98953 -22.5999 0
rfingers 7.12502 0 0
rthumb 18.8803 -771.695 0
825
root 2.36229 16.5453 24.1176 2.56205 -3.19373 352.94
lfemur -32.9955 0.130791 1.63496
ltibia 18.6477 0 0
lfoot -7.22321 11.6527 0
ltoes 20.5048 0 0
rfemur 0.395072 5.82253 20.3898
rtibia 22.5252 0 0
rfoot -18.3314 -11.4284 0
rtoes -24.7765 0 0
lowerback 1.10115 6.20409 4.93261
upperback 0.0652152 8.21605 -0.0504479
thorax 0.312198 4.11613 -2.60082
lowerneck -5.52611 -1.58408 3.32939
upperneck 1.28015 -2.38733 1.48975
head 1.31751 -1.13747 -0.162801
lclavicle 2.70663e-15 -2.22057e-15 0
lhumerus -51.9252 -7.34843 89.2547
lradius 52.191 0 0
lwrist 18.4935 0 0
lhand -5.01417 5.41853 0
lfingers 7.12502 0 0
lthumb 20.7746 34.2723 0
rclavicle 2.70663e-15 -2.22057e-15 0
rhumerus -31.319 40.676 -102.4
rradius 65.4109 0 0
rwrist -2.36208 0 0
rhand -7.15573 -22.7841 0
rfingers 7.12502 0 0
rthumb 18.7203 -771.893 0
826
root 2.40636 16.5464 24.2553 2.08454 -2.62278 353.102
lfemur -32.4475 0.287864 1.06965
ltibia 19.0694 0 0
lfoot -7.15278 10.6154 0
ltoes 20.5819 0 0
rfemur -1.21533 5.64124 19.9691
rtibia 23.5507 0 0
rfoot -17.6057 -11.1285 0
rtoes -24.1735 0 0
lowerback 1.41958 5.99851 4.68091
upperback 0.176851 7.92878 -0.0772477
thorax 0.231608 3.97262 -2.48361
lowerneck -5.55005 -1.6321 3.30375
upperneck 1.46547 -2.45897 1.53468
head 1.38502 -1.16817 -0.148719
lclavicle 3.1845e-15 -2.67632e-15 0
lhumerus -51.5092 -7.72937 89.024
lradius 52.2768 0 0
lwrist 18.6102 0 0
lhand -4.68687 5.38948 0
lfingers 7.12502 0 0
lthumb 21.088 34.1967 0
rclavicle 3.1845e-15 -2.67632e-15 0
rhumerus -31.8188 39.5891 -101.079
rradius 65.0477 0 0
rwrist -2.27005 0 0
rhand -7.32193 -22.9683 0
rfingers 7.12502 0 0
rthumb 18.5602 -772.09 0
